<svg width="40" height="40" viewBox="0 0 40 40" fill="none" xmlns="http://www.w3.org/2000/svg">
<g clip-path="url(#clip0_8370_21561)">
<path d="M16.3111 16.4556C14.8251 16.4556 13.3724 16.0148 12.137 15.1889C10.9016 14.3631 9.93885 13.1894 9.37068 11.8163C8.80251 10.4431 8.65441 8.93234 8.94513 7.47503C9.23585 6.01771 9.95232 4.67938 11.0039 3.62938C12.0554 2.57937 13.3948 1.86489 14.8526 1.57632C16.3103 1.28776 17.8209 1.43809 19.1932 2.0083C20.5655 2.5785 21.7378 3.54295 22.5618 4.7796C23.3858 6.01626 23.8244 7.46955 23.8222 8.95557C23.8163 10.9448 23.0227 12.8507 21.6151 14.2563C20.2074 15.6619 18.3003 16.4526 16.3111 16.4556ZM16.3111 3.66669C15.2651 3.66669 14.2425 3.97687 13.3727 4.55802C12.503 5.13918 11.8251 5.96519 11.4248 6.9316C11.0245 7.89802 10.9198 8.96144 11.1238 9.98739C11.3279 11.0133 11.8316 11.9557 12.5713 12.6954C13.3109 13.435 14.2533 13.9388 15.2793 14.1428C16.3052 14.3469 17.3686 14.2422 18.3351 13.8419C19.3015 13.4416 20.1275 12.7637 20.7086 11.8939C21.2898 11.0242 21.6 10.0016 21.6 8.95557C21.6 7.55287 21.0428 6.20762 20.0509 5.21577C19.059 4.22391 17.7138 3.66669 16.3111 3.66669Z" fill="white"/>
<path d="M18.2444 35.1999C18.0016 34.957 17.8143 34.6643 17.6954 34.3421C17.5764 34.0199 17.5287 33.6757 17.5556 33.3332H4.44445V26.911C6.01947 25.2294 7.93028 23.8975 10.053 23.0017C12.1758 22.1059 14.4631 21.6662 16.7667 21.711H17.5667C17.5157 21.3385 17.5513 20.9592 17.6708 20.6027C17.7903 20.2462 17.9904 19.922 18.2556 19.6555L18.3889 19.5332C17.8667 19.5332 17.2778 19.4666 16.7667 19.4666C14.056 19.4022 11.3649 19.941 8.88798 21.044C6.41104 22.147 4.21015 23.7867 2.44445 25.8444C2.3002 26.0367 2.22223 26.2706 2.22223 26.511V33.3332C2.22223 33.9226 2.45636 34.4878 2.8731 34.9046C3.28985 35.3213 3.85508 35.5555 4.44445 35.5555H18.5556L18.2444 35.1999Z" fill="white"/>
<path d="M37.4223 25.9111L35.2 25.2333C35.0413 24.6897 34.8252 24.1646 34.5556 23.6666L35.6667 21.5999C35.7028 21.5173 35.7116 21.4252 35.6916 21.3372C35.6716 21.2492 35.6239 21.17 35.5556 21.1111L33.9445 19.4999C33.8835 19.434 33.8022 19.3904 33.7135 19.3763C33.6248 19.3622 33.534 19.3784 33.4556 19.4222L31.4111 20.5333C30.9083 20.2491 30.3754 20.0217 29.8223 19.8555L29.1445 17.6333C29.1157 17.5515 29.0611 17.4812 28.989 17.4331C28.9169 17.3851 28.831 17.3617 28.7445 17.3666H26.4667C26.3792 17.3656 26.2938 17.3933 26.2235 17.4455C26.1533 17.4977 26.1021 17.5714 26.0778 17.6555L25.4 19.8777C24.8435 20.0396 24.3069 20.2632 23.8 20.5444L21.7778 19.4333C21.7011 19.3903 21.6121 19.3746 21.5253 19.3888C21.4386 19.4029 21.3592 19.446 21.3 19.5111L19.6556 21.1111C19.5946 21.1753 19.5554 21.257 19.5434 21.3447C19.5314 21.4325 19.5474 21.5218 19.5889 21.5999L20.7 23.6222C20.4064 24.1231 20.1715 24.6563 20 25.2111L17.7778 25.8777C17.6937 25.902 17.62 25.9532 17.5678 26.0235C17.5156 26.0937 17.4879 26.1791 17.4889 26.2666V28.5444C17.4955 28.6246 17.5268 28.7009 17.5785 28.7626C17.6303 28.8243 17.6999 28.8684 17.7778 28.8888L20 29.5666C20.1643 30.1117 20.3878 30.637 20.6667 31.1333L19.5556 33.2555C19.5132 33.3315 19.4968 33.4193 19.5088 33.5056C19.5208 33.5918 19.5607 33.6717 19.6223 33.7333L21.2334 35.3444C21.2963 35.4072 21.3774 35.4485 21.4652 35.4624C21.553 35.4764 21.6429 35.4623 21.7223 35.4222L23.8 34.3111C24.2942 34.5777 24.8157 34.79 25.3556 34.9444L26.0223 37.1666C26.0496 37.2489 26.1016 37.3207 26.1711 37.3724C26.2407 37.4241 26.3245 37.4531 26.4111 37.4555H28.6889C28.776 37.4547 28.8605 37.4263 28.9304 37.3744C29.0003 37.3225 29.0519 37.2497 29.0778 37.1666L29.7556 34.8888C30.2878 34.733 30.8018 34.5207 31.2889 34.2555L33.3889 35.3666C33.4661 35.4076 33.5546 35.4222 33.6409 35.4082C33.7272 35.3941 33.8065 35.3522 33.8667 35.2888L35.5556 33.7777C35.601 33.7125 35.6253 33.635 35.6253 33.5555C35.6253 33.476 35.601 33.3985 35.5556 33.3333L34.4445 31.2444C34.7142 30.7542 34.9303 30.2364 35.0889 29.6999L37.3111 29.0222C37.3952 28.9979 37.469 28.9467 37.5212 28.8764C37.5733 28.8062 37.601 28.7208 37.6 28.6333V26.2999C37.6102 26.2249 37.5989 26.1486 37.5675 26.0798C37.536 26.0109 37.4856 25.9524 37.4223 25.9111ZM27.6111 31.1111C26.8762 31.1133 26.1572 30.8972 25.5452 30.4902C24.9332 30.0833 24.4558 29.5038 24.1736 28.8253C23.8913 28.1467 23.8169 27.3996 23.9597 26.6787C24.1025 25.9578 24.4562 25.2955 24.9759 24.7758C25.4956 24.2561 26.1578 23.9025 26.8788 23.7596C27.5997 23.6168 28.3468 23.6912 29.0254 23.9735C29.7039 24.2557 30.2834 24.7331 30.6903 25.3451C31.0973 25.9571 31.3133 26.6761 31.3111 27.4111C31.3082 28.3915 30.9174 29.3309 30.2242 30.0241C29.5309 30.7174 28.5915 31.1081 27.6111 31.1111Z" fill="white"/>
</g>
<defs>
<clipPath id="clip0_8370_21561">
<rect width="40" height="40" fill="white"/>
</clipPath>
</defs>
</svg>
