<svg width="40" height="40" viewBox="0 0 40 40" fill="none" xmlns="http://www.w3.org/2000/svg">
<path d="M6.66669 35V8.33333C6.66669 7.41667 6.99308 6.63194 7.64585 5.97917C8.29863 5.32639 9.08335 5 10 5H30C30.9167 5 31.7014 5.32639 32.3542 5.97917C33.007 6.63194 33.3334 7.41667 33.3334 8.33333V35H30V31.6667H10V35H6.66669ZM10 18.3333H18.3334V8.33333H10V18.3333ZM21.6667 11.6667H30V8.33333H21.6667V11.6667ZM21.6667 18.3333H30V15H21.6667V18.3333ZM16.6667 26.6667H23.3334V23.3333H16.6667V26.6667ZM10 21.6667V28.3333H30V21.6667H10Z" fill="white"/>
</svg>
