<svg width="38" height="38" viewBox="0 0 38 38" fill="none" xmlns="http://www.w3.org/2000/svg">
<path d="M19.0103 3.05429C10.2082 3.05429 3.03122 10.2194 3.03125 19.0214C3.03125 27.8234 10.2083 34.9856 19.0103 34.9856C27.8122 34.9856 34.9744 27.8234 34.9744 19.0214C34.9744 10.2194 27.8123 3.05429 19.0103 3.05429ZM13.6304 12.183C13.8375 12.1755 14.0439 12.2104 14.237 12.2854C14.4301 12.3605 14.6058 12.4743 14.7533 12.6197L19.0043 16.8677L23.2523 12.6197C23.5257 12.3505 23.8907 12.1945 24.2742 12.183C24.4832 12.1739 24.6919 12.2079 24.8871 12.283C25.0824 12.3582 25.26 12.4728 25.409 12.6197C25.5511 12.761 25.6638 12.9291 25.7408 13.1141C25.8177 13.2992 25.8573 13.4976 25.8573 13.698C25.8573 13.8985 25.8177 14.0969 25.7408 14.282C25.6638 14.467 25.5511 14.635 25.409 14.7764L21.161 19.0214L25.409 23.2635C25.5511 23.4048 25.6638 23.5728 25.7408 23.7579C25.8177 23.9429 25.8573 24.1414 25.8573 24.3418C25.8573 24.5422 25.8177 24.7407 25.7408 24.9257C25.6638 25.1108 25.5511 25.2788 25.409 25.4201C25.2676 25.5622 25.0996 25.675 24.9146 25.7519C24.7295 25.8289 24.5311 25.8685 24.3306 25.8685C24.1302 25.8685 23.9318 25.8289 23.7467 25.7519C23.5617 25.675 23.3936 25.5622 23.2523 25.4201L19.0043 21.1721L14.7533 25.4201C14.4684 25.7035 14.0828 25.8625 13.6809 25.8625C13.2791 25.8625 12.8935 25.7035 12.6086 25.4201C12.4665 25.2788 12.3537 25.1108 12.2768 24.9257C12.1998 24.7407 12.1602 24.5422 12.1602 24.3418C12.1602 24.1414 12.1998 23.9429 12.2768 23.7579C12.3537 23.5728 12.4665 23.4048 12.6086 23.2635L16.8536 19.0214L12.6086 14.7764C12.4665 14.635 12.3537 14.467 12.2768 14.282C12.1998 14.0969 12.1602 13.8985 12.1602 13.698C12.1602 13.4976 12.1998 13.2992 12.2768 13.1141C12.3537 12.9291 12.4665 12.761 12.6086 12.6197C12.8819 12.3505 13.2469 12.1945 13.6304 12.183Z" fill="#F5F9FE"/>
</svg>
