<svg width="40" height="40" viewBox="0 0 40 40" fill="none" xmlns="http://www.w3.org/2000/svg">
<g clip-path="url(#clip0_8370_21513)">
<path d="M20.8333 12.5C20.8333 10.7319 21.5357 9.0362 22.7859 7.78595C24.0362 6.53571 25.7319 5.83333 27.5 5.83333H29.1666V0.833333H10.8333V5.83333C11.7174 5.83333 12.5652 6.18452 13.1903 6.80964C13.8155 7.43477 14.1666 8.28261 14.1666 9.16667V19.1667C14.1666 20.0507 13.8155 20.8986 13.1903 21.5237C12.5652 22.1488 11.7174 22.5 10.8333 22.5V39.1667H29.1666V27.5L28.925 27.355C23.3333 23.3333 20.8333 19.1667 20.8333 12.5ZM20.8333 12.5H14.1666M25.8333 6.04333V8.33333C25.8333 9.4384 26.2723 10.4982 27.0537 11.2796C27.8351 12.061 28.8949 12.5 30 12.5M34.1666 0V6.66667" stroke="white" stroke-width="2"/>
</g>
<defs>
<clipPath id="clip0_8370_21513">
<rect width="40" height="40" fill="white"/>
</clipPath>
</defs>
</svg>
