<svg width="30" height="31" viewBox="0 0 30 31" fill="none" xmlns="http://www.w3.org/2000/svg">
<path d="M15.2094 0.810094C6.86928 0.697448 0.0606067 7.50612 0.173253 15.8462C0.284473 23.8448 6.79728 30.3576 14.7959 30.4688C23.1374 30.5829 29.9446 23.7742 29.8306 15.4341C29.7208 7.43412 23.208 0.921314 15.2094 0.810094ZM14.0123 14.5323L17.6876 10.3258C17.8867 10.098 18.1682 9.95857 18.4701 9.93825C18.772 9.91793 19.0696 10.0184 19.2974 10.2175C19.5253 10.4166 19.6647 10.698 19.685 11C19.7054 11.3019 19.6049 11.5995 19.4058 11.8273L15.7305 16.0337C15.632 16.1465 15.5121 16.2388 15.3779 16.3053C15.2436 16.3718 15.0976 16.4113 14.9481 16.4213C14.7986 16.4314 14.6486 16.4119 14.5066 16.364C14.3647 16.3161 14.2335 16.2407 14.1207 16.1421C14.0079 16.0435 13.9156 15.9237 13.8491 15.7894C13.7826 15.6551 13.7432 15.5091 13.7331 15.3596C13.723 15.2101 13.7425 15.0601 13.7904 14.9182C13.8383 14.7762 13.9137 14.6451 14.0123 14.5323ZM11.2418 21.0094C11.0279 21.2232 10.7379 21.3433 10.4355 21.3433C10.1331 21.3433 9.84302 21.2232 9.62912 21.0094L6.21052 17.5872C6.10463 17.4813 6.02065 17.3555 5.96338 17.217C5.9061 17.0786 5.87666 16.9302 5.87673 16.7804C5.87679 16.6306 5.90637 16.4822 5.96376 16.3438C6.02116 16.2055 6.10525 16.0797 6.21123 15.9738C6.31722 15.8679 6.44302 15.784 6.58146 15.7267C6.7199 15.6694 6.86826 15.64 7.01808 15.64C7.1679 15.6401 7.31624 15.6697 7.45463 15.7271C7.59302 15.7845 7.71875 15.8686 7.82464 15.9746L11.2468 19.3967C11.4599 19.6113 11.5791 19.9017 11.5782 20.2041C11.5772 20.5065 11.4562 20.7962 11.2418 21.0094ZM23.8468 11.8273L15.8703 20.9531C15.7675 21.0708 15.6416 21.1662 15.5005 21.2333C15.3593 21.3004 15.2059 21.3377 15.0497 21.3431H15.0112C14.8613 21.3431 14.7129 21.3136 14.5744 21.2562C14.4359 21.1988 14.3101 21.1147 14.2041 21.0087L10.7862 17.5865C10.5724 17.3725 10.4523 17.0823 10.4524 16.7797C10.4526 16.4771 10.5729 16.187 10.7869 15.9731C11.001 15.7593 11.2912 15.6392 11.5938 15.6393C11.8964 15.6395 12.1865 15.7598 12.4004 15.9738L14.5249 18.1006C14.5802 18.1558 14.6462 18.1991 14.7188 18.2278C14.7915 18.2565 14.8693 18.27 14.9473 18.2674C15.0254 18.2648 15.1021 18.2461 15.1727 18.2127C15.2433 18.1792 15.3063 18.1316 15.3577 18.0728L22.1307 10.3258C22.3298 10.098 22.6113 9.95857 22.9132 9.93825C23.2151 9.91793 23.5127 10.0184 23.7405 10.2175C23.9684 10.4166 24.1078 10.698 24.1281 11C24.1485 11.3019 24.048 11.5995 23.8489 11.8273H23.8468Z" fill="#276D21"/>
</svg>
