<svg width="38" height="37" viewBox="0 0 38 37" fill="none" xmlns="http://www.w3.org/2000/svg">
<path d="M19.2094 3.81009C10.8693 3.69745 4.06061 10.5061 4.17325 18.8462C4.28447 26.8448 10.7973 33.3576 18.7959 33.4688C27.1374 33.5829 33.9446 26.7742 33.8306 18.4341C33.7208 10.4341 27.208 3.92131 19.2094 3.81009ZM18.0123 17.5323L21.6876 13.3258C21.8867 13.098 22.1682 12.9586 22.4701 12.9383C22.772 12.9179 23.0696 13.0184 23.2974 13.2175C23.5253 13.4166 23.6647 13.698 23.685 14C23.7054 14.3019 23.6049 14.5995 23.4058 14.8273L19.7305 19.0337C19.632 19.1465 19.5121 19.2388 19.3779 19.3053C19.2436 19.3718 19.0976 19.4113 18.9481 19.4213C18.7986 19.4314 18.6486 19.4119 18.5066 19.364C18.3647 19.3161 18.2335 19.2407 18.1207 19.1421C18.0079 19.0435 17.9156 18.9237 17.8491 18.7894C17.7826 18.6551 17.7432 18.5091 17.7331 18.3596C17.723 18.2101 17.7425 18.0601 17.7904 17.9182C17.8383 17.7762 17.9137 17.6451 18.0123 17.5323ZM15.2418 24.0094C15.0279 24.2232 14.7379 24.3433 14.4355 24.3433C14.1331 24.3433 13.843 24.2232 13.6291 24.0094L10.2105 20.5872C10.1046 20.4813 10.0206 20.3555 9.96338 20.217C9.9061 20.0786 9.87666 19.9302 9.87673 19.7804C9.87679 19.6306 9.90637 19.4822 9.96376 19.3438C10.0212 19.2055 10.1052 19.0797 10.2112 18.9738C10.3172 18.8679 10.443 18.784 10.5815 18.7267C10.7199 18.6694 10.8683 18.64 11.0181 18.64C11.1679 18.6401 11.3162 18.6697 11.4546 18.7271C11.593 18.7845 11.7187 18.8686 11.8246 18.9746L15.2468 22.3967C15.4599 22.6113 15.5791 22.9017 15.5782 23.2041C15.5772 23.5065 15.4562 23.7962 15.2418 24.0094ZM27.8468 14.8273L19.8703 23.9531C19.7675 24.0708 19.6416 24.1662 19.5005 24.2333C19.3593 24.3004 19.2059 24.3377 19.0497 24.3431H19.0112C18.8613 24.3431 18.7129 24.3136 18.5744 24.2562C18.4359 24.1988 18.3101 24.1147 18.2041 24.0087L14.7862 20.5865C14.5724 20.3725 14.4523 20.0823 14.4524 19.7797C14.4526 19.4771 14.5729 19.187 14.7869 18.9731C15.001 18.7593 15.2912 18.6392 15.5938 18.6393C15.8964 18.6395 16.1865 18.7598 16.4004 18.9738L18.5249 21.1006C18.5802 21.1558 18.6462 21.1991 18.7188 21.2278C18.7915 21.2565 18.8693 21.27 18.9473 21.2674C19.0254 21.2648 19.1021 21.2461 19.1727 21.2127C19.2433 21.1792 19.3063 21.1316 19.3577 21.0728L26.1307 13.3258C26.3298 13.098 26.6113 12.9586 26.9132 12.9383C27.2151 12.9179 27.5127 13.0184 27.7405 13.2175C27.9684 13.4166 28.1078 13.698 28.1281 14C28.1485 14.3019 28.048 14.5995 27.8489 14.8273H27.8468Z" fill="#0778E0"/>
</svg>
