<svg width="40" height="40" viewBox="0 0 40 40" fill="none" xmlns="http://www.w3.org/2000/svg">
<path d="M12.51 25.4415C12.5538 25.5998 12.6283 25.7478 12.7293 25.8773C12.8303 26.0067 12.9558 26.115 13.0986 26.1959C13.2415 26.2769 13.3989 26.3289 13.5618 26.349C13.7248 26.3691 13.8901 26.3569 14.0483 26.3132C14.2066 26.2694 14.3546 26.1949 14.4841 26.0939C14.6135 25.9929 14.7218 25.8674 14.8027 25.7245C14.8837 25.5817 14.9357 25.4243 14.9558 25.2613C14.9759 25.0984 14.9638 24.9331 14.92 24.7748L12.51 25.4415ZM5.33331 7.87484C5.17445 7.82844 5.00795 7.81405 4.84348 7.8325C4.67901 7.85095 4.51984 7.90188 4.37521 7.98234C4.23057 8.06279 4.10336 8.17117 4.00094 8.30117C3.89852 8.43118 3.82294 8.58023 3.77858 8.73968C3.73422 8.89913 3.72197 9.0658 3.74254 9.23002C3.7631 9.39424 3.81607 9.55274 3.89837 9.69633C3.98068 9.83991 4.09068 9.96573 4.22199 10.0665C4.3533 10.1672 4.50331 10.2409 4.66331 10.2832L5.33331 7.87484ZM33.6466 26.2082C33.8094 26.1705 33.963 26.1007 34.0983 26.0027C34.2336 25.9047 34.3479 25.7806 34.4344 25.6376C34.5209 25.4947 34.5779 25.3359 34.602 25.1706C34.6261 25.0053 34.6168 24.8369 34.5747 24.6752C34.5326 24.5135 34.4585 24.3619 34.3568 24.2294C34.2551 24.0969 34.1279 23.9861 33.9826 23.9035C33.8374 23.821 33.677 23.7684 33.5111 23.7489C33.3452 23.7294 33.1771 23.7433 33.0166 23.7898L33.6466 26.2082ZM16.995 29.2648C17.5116 31.1315 16.3783 33.1032 14.3716 33.6248L15 36.0432C18.295 35.1882 20.3083 31.8732 19.405 28.5982L16.995 29.2648ZM14.3716 33.6248C12.3516 34.1498 10.325 32.9765 9.80498 31.0932L7.39498 31.7598C8.29498 35.0182 11.7183 36.8965 15 36.0432L14.3716 33.6248ZM9.80498 31.0932C9.28831 29.2265 10.4216 27.2548 12.4283 26.7332L11.8 24.3165C8.50498 25.1715 6.48998 28.4848 7.39498 31.7598L9.80498 31.0932ZM12.4283 26.7332C14.4483 26.2082 16.475 27.3815 16.995 29.2648L19.405 28.5982C18.505 25.3398 15.0816 23.4615 11.8 24.3148L12.4283 26.7332ZM14.92 24.7748L11.3333 11.7915L8.92331 12.4582L12.51 25.4415L14.92 24.7748ZM8.17331 8.66151L5.33331 7.87484L4.66331 10.2832L7.50498 11.0715L8.17331 8.66151ZM11.3333 11.7915C11.1214 11.0415 10.719 10.3591 10.1653 9.81058C9.61156 9.26211 8.92533 8.86625 8.17331 8.66151L7.50831 11.0715C8.21665 11.2682 8.74331 11.8065 8.92331 12.4582L11.3333 11.7915ZM18.5166 30.1415L33.6466 26.2082L33.0183 23.7898L17.8866 27.7232L18.5166 30.1415Z" fill="white"/>
<path d="M15.9416 14.5499C15.1333 11.6249 14.73 10.1616 15.4166 9.00991C16.1016 7.85658 17.61 7.46491 20.6266 6.67991L23.8266 5.84991C26.8433 5.06658 28.3516 4.67324 29.54 5.33824C30.7283 6.00491 31.1333 7.46658 31.94 10.3932L32.7983 13.4966C33.6066 16.4216 34.0116 17.8849 33.325 19.0382C32.6383 20.1899 31.13 20.5832 28.1133 21.3666L24.9133 22.1982C21.8966 22.9816 20.3883 23.3732 19.2 22.7082C18.0116 22.0416 17.6083 20.5799 16.8 17.6549L15.9416 14.5499Z" stroke="white" stroke-width="1.5"/>
</svg>
