<svg width="23" height="22" viewBox="0 0 23 22" fill="none" xmlns="http://www.w3.org/2000/svg">
<path fill-rule="evenodd" clip-rule="evenodd" d="M7.30983 4.19043C7.88841 4.19043 8.35745 4.65946 8.35745 5.23805V7.33329C8.35745 7.91187 7.88841 8.38091 7.30983 8.38091C6.73124 8.38091 6.26221 7.91187 6.26221 7.33329V5.23805C6.26221 4.65946 6.73124 4.19043 7.30983 4.19043Z" stroke="#023E8A" stroke-width="1.3" stroke-linecap="round" stroke-linejoin="round"/>
<path d="M19.8812 6.28564H8.35742" stroke="#023E8A" stroke-width="1.3" stroke-linecap="round" stroke-linejoin="round"/>
<path d="M6.262 6.28564H3.11914" stroke="#023E8A" stroke-width="1.3" stroke-linecap="round" stroke-linejoin="round"/>
<path fill-rule="evenodd" clip-rule="evenodd" d="M7.30983 14.6666C7.88841 14.6666 8.35745 15.1357 8.35745 15.7142V17.8095C8.35745 18.3881 7.88841 18.8571 7.30983 18.8571C6.73124 18.8571 6.26221 18.3881 6.26221 17.8095V15.7142C6.26221 15.1357 6.73124 14.6666 7.30983 14.6666Z" stroke="#023E8A" stroke-width="1.3" stroke-linecap="round" stroke-linejoin="round"/>
<path d="M19.8812 16.7618H8.35742" stroke="#023E8A" stroke-width="1.3" stroke-linecap="round" stroke-linejoin="round"/>
<path d="M6.262 16.7618H3.11914" stroke="#023E8A" stroke-width="1.3" stroke-linecap="round" stroke-linejoin="round"/>
<path fill-rule="evenodd" clip-rule="evenodd" d="M15.6907 9.42847C16.2693 9.42847 16.7383 9.8975 16.7383 10.4761V12.5713C16.7383 13.1499 16.2693 13.6189 15.6907 13.6189C15.1121 13.6189 14.6431 13.1499 14.6431 12.5713V10.4761C14.6431 9.8975 15.1121 9.42847 15.6907 9.42847Z" stroke="#023E8A" stroke-width="1.3" stroke-linecap="round" stroke-linejoin="round"/>
<path d="M14.643 11.5238H3.11914" stroke="#023E8A" stroke-width="1.3" stroke-linecap="round" stroke-linejoin="round"/>
<path d="M19.8811 11.5238H16.7383" stroke="#023E8A" stroke-width="1.3" stroke-linecap="round" stroke-linejoin="round"/>
</svg>
