<svg width="40" height="40" viewBox="0 0 40 40" fill="none" xmlns="http://www.w3.org/2000/svg">
<g clip-path="url(#clip0_8370_21541)">
<path d="M15.3979 0C14.8671 0 14.4369 0.430234 14.4369 0.961016V1.22883C14.4369 1.75961 14.8671 2.18984 15.3979 2.18984C15.9287 2.18984 16.3589 1.75961 16.3589 1.22883V0.961016C16.3588 0.430234 15.9286 0 15.3979 0Z" fill="white"/>
<path d="M15.3979 24.5013H14.4561V21.1244C14.4561 20.5936 14.0259 20.1634 13.4951 20.1634H11.9662V15.9005H15.3978C15.9286 15.9005 16.3589 15.4702 16.3589 14.9395V10.9023V3.65531C16.3589 3.12453 15.9286 2.6943 15.3978 2.6943C14.8671 2.6943 14.4368 3.12453 14.4368 3.65531V9.94149H11.9661V0.961016C11.9662 0.430234 11.536 0 11.0052 0C10.4744 0 10.0442 0.430234 10.0442 0.961016V9.94141H7.5726V0.961016C7.5726 0.430234 7.14237 0 6.61159 0C6.08081 0 5.65065 0.430234 5.65065 0.961016V10.9024V14.9395C5.65065 15.4703 6.08089 15.9005 6.61167 15.9005H10.0443V20.1634H8.5144C7.98362 20.1634 7.55339 20.5937 7.55339 21.1245V24.5013H6.61159C6.08081 24.5013 5.65057 24.9316 5.65057 25.4623C5.65057 25.9931 6.08081 26.4234 6.61159 26.4234H7.55339V39.0391C7.55339 39.5699 7.98362 40.0002 8.5144 40.0002H13.4952C14.026 40.0002 14.4562 39.5699 14.4562 39.0391V26.4232H15.398C15.9288 26.4232 16.359 25.993 16.359 25.4622C16.3589 24.9315 15.9286 24.5013 15.3979 24.5013ZM7.5726 13.9784V11.8633H14.4369V13.9784H7.5726ZM12.5342 38.078H9.47534V26.4232H12.5342V38.078ZM12.5342 24.5013H9.47534V22.0853H12.5342V24.5013Z" fill="white"/>
<path d="M34.3495 14.9395V5.78125C34.3495 5.5418 34.26 5.31086 34.0988 5.13391L29.7052 0.313594C29.523 0.113906 29.2652 0 28.9948 0C28.7245 0 28.4667 0.113906 28.2846 0.313672L23.892 5.13406C23.7306 5.31102 23.6413 5.54187 23.6413 5.78125V14.9395C23.6413 15.4702 24.0715 15.9005 24.6023 15.9005H28.0339V20.1634H26.505C25.9742 20.1634 25.544 20.5936 25.544 21.1244V24.5012H24.6022C24.0714 24.5012 23.6412 24.9315 23.6412 25.4623C23.6412 25.993 24.0714 26.4233 24.6022 26.4233H25.544V39.0391C25.544 39.5698 25.9742 40.0001 26.505 40.0001H31.4858C32.0166 40.0001 32.4468 39.5698 32.4468 39.0391V26.4232H33.3886C33.9194 26.4232 34.3496 25.993 34.3496 25.4622C34.3496 24.9314 33.9194 24.5012 33.3886 24.5012H32.4468V21.1243C32.4468 20.5935 32.0166 20.1633 31.4858 20.1633H29.9559V15.9004H33.3885C33.9192 15.9005 34.3495 15.4702 34.3495 14.9395ZM30.5247 38.078H27.4659V26.4232H30.5247V38.078ZM30.5247 22.0853V24.5012H27.4659V22.0853H30.5247ZM32.4274 13.9784H25.5631V6.15344L28.9949 2.38766L32.4275 6.15359L32.4274 13.9784Z" fill="white"/>
</g>
<defs>
<clipPath id="clip0_8370_21541">
<rect width="40" height="40" fill="white"/>
</clipPath>
</defs>
</svg>
