<svg width="40" height="40" viewBox="0 0 40 40" fill="none" xmlns="http://www.w3.org/2000/svg">
<path d="M14.2578 5.42175C13.7571 4.79587 13.3072 4.21682 12.9842 3.79201C12.8227 3.57968 12.6926 3.40537 12.6036 3.28278C12.5592 3.2217 12.5242 3.17235 12.5005 3.13717C12.4889 3.11999 12.4785 3.10392 12.4707 3.09066C12.4673 3.08476 12.4617 3.07496 12.457 3.06391C12.455 3.05929 12.4498 3.04701 12.4466 3.03093C12.445 3.02307 12.4424 3.00698 12.4442 2.98673C12.4461 2.9671 12.4538 2.92796 12.4878 2.89398C12.5063 2.87548 12.5259 2.86487 12.5345 2.86044C12.5456 2.8547 12.5568 2.85001 12.5665 2.84626C12.5862 2.8387 12.6093 2.83143 12.6336 2.82451C12.6829 2.81052 12.7475 2.79508 12.8223 2.77913C12.9721 2.74717 13.1701 2.71156 13.383 2.67999C13.864 2.59996 14.4987 2.56868 15.1162 2.5884C15.7314 2.60806 16.3429 2.67875 16.7752 2.80879C20.046 3.67173 22.3582 6.9078 22.1028 10.2301C22.0711 10.6581 21.9764 11.2451 21.895 11.5388L21.7896 11.9474L22.9274 13.3098C22.9275 13.3099 22.9276 13.31 22.9277 13.3101C23.5847 14.0923 27.2719 18.4981 31.1152 23.107C31.3764 23.4195 31.6285 23.721 31.8717 24.012C35.2558 28.0599 36.9311 30.0638 37.7587 31.2173C38.2023 31.8357 38.4133 32.2241 38.5096 32.562C38.5884 32.8387 38.5878 33.0782 38.5872 33.3568L14.2578 5.42175ZM14.2578 5.42175C14.2579 5.42179 14.2579 5.42183 14.2579 5.42188L16.032 7.65078L15.5792 8.80463L15.579 8.80522L15.1255 9.97552L14.2723 10.1177L14.2723 10.1177L14.2701 10.1181C13.7575 10.2113 13.1518 10.3045 12.9191 10.3356L12.5972 10.3727L10.8209 8.12577L10.8209 8.12577L10.8202 8.1249L8.97642 5.82802L8.82133 5.63482L8.72202 5.8618L8.50357 6.36113C8.50352 6.36125 8.50346 6.36136 8.50341 6.36147C7.1382 9.44142 7.54828 12.3971 9.65548 14.6799C10.9978 16.1341 12.7562 16.8834 14.84 16.9312C14.8401 16.9313 14.8402 16.9313 14.8404 16.9313L15.85 16.9605L23.6661 26.3305L23.6663 26.3307C24.1249 26.8787 24.5768 27.4188 25.0187 27.9469C26.6618 29.9105 28.1652 31.7072 29.352 33.1218C30.1049 34.0193 30.7306 34.7632 31.1837 35.2984C31.632 35.8279 31.9179 36.161 31.9872 36.2305C33.8738 38.1649 37.0122 37.6411 38.2129 35.1911L38.213 35.1909C38.3834 34.8422 38.4854 34.6237 38.5388 34.3932C38.5924 34.1618 38.5953 33.9255 38.5876 33.5446L14.2578 5.42175ZM10.6719 10.7032L9.59386 9.34866L9.58167 9.57421M10.6719 10.7032L12.2188 14.5313C10.5782 13.6719 9.34382 11.5469 9.42195 9.75005L9.441 9.39747L9.58167 9.57421M10.6719 10.7032C11.8438 12.1719 11.8907 12.2188 12.1876 12.1719C12.3594 12.1407 13.3438 11.9844 14.4063 11.8282C15.4532 11.6719 16.3126 11.5313 16.3282 11.5157C16.3751 11.4688 17.9532 7.42192 17.9532 7.35942C17.9532 7.32817 17.4219 6.64067 16.7813 5.8438C16.2803 5.22346 15.8612 4.68509 15.691 4.45123C15.712 4.4529 15.7428 4.45704 15.7844 4.465C15.8211 4.47203 15.8628 4.48133 15.9086 4.49264M10.6719 10.7032L17.5001 4.92192M9.58167 9.57421L9.57177 9.75734C9.53442 10.6208 9.81276 11.5726 10.3054 12.4166C10.7981 13.2607 11.4978 13.9843 12.2884 14.3984L12.2898 14.3992C12.8086 14.6779 13.182 14.8389 13.5678 14.9303C13.954 15.0217 14.3613 15.0453 14.9512 15.0376L14.9532 15.0375C15.5337 15.0375 16.108 15.0075 16.2395 14.9927L16.2411 14.9918L16.2525 14.9854C16.2617 14.9803 16.2769 14.9726 16.2962 14.9666C16.3956 14.9357 16.4797 14.9858 16.5448 15.0366C16.6788 15.1413 16.9318 15.4134 17.4868 16.0585C18.4866 17.2205 20.4993 19.6336 24.6359 24.593C25.134 25.1902 25.663 25.8244 26.2246 26.4977C28.9669 29.7712 30.7943 31.9462 31.9733 33.3203C32.5629 34.0076 32.9892 34.4932 33.2862 34.8154C33.4347 34.9766 33.5495 35.0953 33.6352 35.1773C33.6781 35.2183 33.7124 35.2488 33.7391 35.2704C33.7523 35.2811 33.7628 35.2889 33.7709 35.2944C33.7793 35.3001 33.7831 35.302 33.783 35.302L33.7859 35.3034C34.2854 35.5531 34.9596 35.6081 35.4295 35.423L35.4318 35.4221C36.4817 35.0284 37.017 33.8478 36.641 32.8498L36.7813 32.7969L36.6411 32.8503C36.6389 32.8445 36.6291 32.8244 36.6038 32.784C36.5801 32.746 36.5469 32.6967 36.5032 32.635C36.4158 32.5117 36.2901 32.3437 36.1226 32.1272C35.7879 31.6944 35.2898 31.0721 34.6064 30.2335C33.2399 28.5565 31.135 26.0181 28.1194 22.4088L28.2344 22.3125M9.58167 9.57421L10.5546 10.7966L10.5547 10.7967C11.1368 11.5262 11.4493 11.9156 11.6534 12.1136C11.7565 12.2136 11.8469 12.2802 11.9443 12.3115C12.0452 12.344 12.1347 12.3321 12.211 12.3201L12.211 12.3201L12.2144 12.3195C12.3834 12.2888 13.3653 12.1329 14.4281 11.9766L14.4285 11.9765C14.9524 11.8983 15.4296 11.824 15.7781 11.7672C15.9522 11.7389 16.0948 11.7148 16.1951 11.6968C16.245 11.6878 16.2856 11.6801 16.3147 11.674C16.329 11.671 16.3423 11.6681 16.3533 11.6652C16.3585 11.6639 16.3657 11.6619 16.3731 11.6593C16.3767 11.6581 16.383 11.6558 16.3902 11.6524L16.3906 11.6523C16.3947 11.6504 16.415 11.641 16.4343 11.6217C16.4462 11.6098 16.4535 11.5984 16.4554 11.5955C16.4586 11.5906 16.4611 11.5862 16.4628 11.5832C16.4662 11.577 16.4694 11.5706 16.4721 11.565C16.4776 11.5535 16.4842 11.5389 16.4915 11.5222C16.5063 11.4885 16.5262 11.4414 16.5501 11.3835C16.5981 11.2674 16.6638 11.1046 16.7412 10.9109C16.8959 10.5235 17.0977 10.0109 17.298 9.49797C17.4983 8.98507 17.6971 8.47153 17.846 8.08218C17.9204 7.88757 17.9824 7.7236 18.026 7.60614C18.0477 7.54752 18.065 7.4998 18.0771 7.4654C18.083 7.44836 18.0881 7.43348 18.0917 7.42174C18.0935 7.41603 18.0955 7.40958 18.0971 7.40331C18.0979 7.40023 18.0991 7.39575 18.1001 7.39059L18.1001 7.39037C18.1008 7.38718 18.1032 7.37482 18.1032 7.35942C18.1032 7.33604 18.0977 7.31813 18.0957 7.31182C18.093 7.30337 18.09 7.29653 18.0881 7.29222C18.0841 7.28355 18.0798 7.27588 18.0767 7.27049C18.0701 7.25926 18.0619 7.24667 18.0534 7.23402C18.0359 7.20817 18.0113 7.17374 17.981 7.13259C17.9201 7.04987 17.8329 6.93502 17.7262 6.79698C17.5126 6.52065 17.219 6.14879 16.8982 5.74981L16.898 5.74955C16.5704 5.34398 16.2782 4.97378 16.0681 4.7014C16.0076 4.62303 15.9541 4.55297 15.9086 4.49264M15.9086 4.49264C16.0127 4.51833 16.138 4.55444 16.2748 4.59805C16.6687 4.72355 17.1364 4.90409 17.4311 5.05511M15.9086 4.49264C15.875 4.44803 15.8458 4.40874 15.8213 4.37534C15.8027 4.34995 15.7873 4.32848 15.775 4.31096C16.1419 4.37163 17.0276 4.67964 17.5001 4.92192M17.4311 5.05511C19.7231 6.25459 20.8184 9.06653 19.9524 11.5282L19.9525 11.5279L20.0938 11.5782M17.4311 5.05511C17.4313 5.05521 17.4314 5.0553 17.4316 5.05539L17.5001 4.92192M17.4311 5.05511C17.4309 5.05502 17.4307 5.05493 17.4305 5.05483L17.5001 4.92192M20.0938 11.5782L19.9523 11.5284L19.7025 12.231L19.6738 12.3118L19.7288 12.3775L28.1193 22.4087L28.2344 22.3125M20.0938 11.5782C20.9844 9.04692 19.8594 6.1563 17.5001 4.92192M20.0938 11.5782L19.8438 12.2813M28.2344 22.3125L19.8438 12.2813M28.2344 22.3125L19.8438 12.2813M19.8438 12.2813L17.5001 4.92192M15.6905 4.44139C15.6888 4.44226 15.6872 4.44305 15.6856 4.44377L15.7581 4.30828C15.7582 4.30936 15.7584 4.31047 15.7585 4.31161C15.7587 4.31312 15.7588 4.31469 15.759 4.31629C15.7592 4.32014 15.7594 4.32411 15.7593 4.32817C15.7589 4.34907 15.7534 4.37236 15.74 4.39448C15.724 4.42083 15.7032 4.4348 15.6905 4.44139Z" fill="white" stroke="white" stroke-width="0.3"/>
<mask id="path-2-outside-1_8370_21523" maskUnits="userSpaceOnUse" x="0.544556" y="16.9414" width="19" height="19" fill="black">
<rect fill="white" x="0.544556" y="16.9414" width="19" height="19"/>
<path d="M9.31252 18.1405C8.79689 18.4062 8.56252 18.8124 8.48439 19.6093L8.42189 20.1718L7.98439 20.2968C7.56252 20.4218 7.54689 20.4218 7.25002 20.078C6.68752 19.453 5.93752 19.2499 5.29689 19.5937C5.12502 19.6874 4.67189 20.0624 4.29689 20.4062C3.23439 21.4062 3.12502 22.1093 3.89064 22.9843L4.28127 23.4218L4.09377 23.8593L3.90627 24.2968L3.39064 24.2499C2.96877 24.203 2.76564 24.2499 2.42189 24.4374C1.81252 24.7655 1.67189 25.1093 1.57814 26.328C1.51564 27.2187 1.53127 27.4062 1.70314 27.7812C1.95314 28.3437 2.42189 28.6405 3.06252 28.6405C3.65627 28.6405 3.73439 28.6874 3.89064 29.1562C4.01564 29.5468 4.01564 29.5468 3.60939 29.9374C2.65627 30.9218 2.79689 31.6874 4.20314 33.0312C5.14064 33.9218 5.79689 33.953 6.65627 33.1718L7.04689 32.8281L7.45314 33.0155L7.85939 33.2187L7.87502 33.8749C7.89064 34.5937 8.04689 34.9218 8.60939 35.2968C8.84377 35.4687 9.12502 35.5156 9.96877 35.5624C10.9531 35.6249 11.0625 35.6093 11.4688 35.4218C11.9844 35.1405 12.2656 34.6874 12.2656 34.0624C12.2656 33.4999 12.3281 33.4218 12.8281 33.2812C13.2344 33.1562 13.2344 33.1562 13.5 33.4687C13.8125 33.8437 14.4063 34.1718 14.7813 34.1718C15.25 34.1718 15.8594 33.7968 16.5625 33.0624C17.3281 32.2656 17.4688 31.8906 17.2656 31.2656C17.2031 31.0624 16.9844 30.7343 16.7969 30.5155L16.4531 30.1249L16.6563 29.7187L16.8594 29.3124H17.5156C18.2344 29.3124 18.5469 29.1405 18.9219 28.5937C19.0938 28.3593 19.1406 28.0781 19.1875 27.2343C19.25 26.2499 19.2344 26.1405 19.0469 25.7343C18.7656 25.2187 18.3594 24.9687 17.5781 24.8906L17.0156 24.828L16.8906 24.3906L16.7656 23.9531L17.1563 23.578C17.6719 23.0937 17.8438 22.5312 17.6719 21.9687C17.5 21.4218 16.2031 20.0468 15.7031 19.9062C15.1563 19.7343 14.7031 19.8593 14.2031 20.3124L13.7656 20.703L13.2969 20.4999C12.8438 20.2968 12.8281 20.2968 12.9063 19.9218C13.0313 19.203 12.6719 18.4999 12.0156 18.1562C11.9063 18.1093 11.3594 18.0312 10.7813 17.9843C9.82814 17.9062 9.71877 17.9218 9.31252 18.1405ZM11.2188 19.5468C11.3438 19.5937 11.3594 19.7499 11.3125 20.5156L11.25 21.4218L11.8281 21.5937C12.4063 21.7655 13.0313 22.0624 13.6094 22.4218L13.9219 22.6249L14.5781 22.0155C15.3125 21.328 15.3281 21.3281 15.8594 21.9687L16.1563 22.3437L15.4844 22.9687L14.8125 23.5937L15.1719 24.328C15.375 24.7187 15.5781 25.328 15.6563 25.6874L15.7813 26.328L16.6875 26.3593C17.7344 26.3905 17.7344 26.4062 17.625 27.2187L17.5625 27.7499L16.6563 27.6874L15.75 27.6249L15.5313 28.328C15.4063 28.7187 15.1406 29.2968 14.9219 29.6249C14.4844 30.2968 14.4844 30.3124 15.2344 31.0468C15.5156 31.3124 15.7344 31.5937 15.7344 31.6405C15.7344 31.703 15.5313 31.9218 15.2656 32.1249L14.8125 32.4999L14.1875 31.828L13.5625 31.1718L12.8438 31.5155C12.4531 31.7187 11.8438 31.9218 11.4844 31.9999L10.8438 32.1249L10.8125 33.0312C10.7813 34.078 10.7656 34.0937 9.95314 33.9843L9.40627 33.9218L9.46877 33.0155L9.53127 32.1093L8.85939 31.9062C8.48439 31.7812 7.87502 31.5155 7.51564 31.2968L6.84377 30.8905L6.21877 31.4843C5.87502 31.8124 5.54689 32.078 5.50002 32.078C5.43752 32.078 5.21877 31.8749 5.01564 31.6249L4.65627 31.1718L5.31252 30.5468L5.96877 29.9218L5.68752 29.3593C5.43752 28.8437 5.21877 28.203 5.04689 27.453C4.98439 27.1874 4.98439 27.1874 4.07814 27.1562L3.17189 27.1249L3.14064 26.7968C3.12502 26.6093 3.12502 26.3124 3.17189 26.1249L3.23439 25.7968L4.14064 25.8593L5.04689 25.9218L5.21877 25.3593C5.40627 24.7656 5.70314 24.1249 6.07814 23.578L6.28127 23.2499L5.68752 22.6249C5.35939 22.2812 5.09377 21.9531 5.09377 21.8906C5.09377 21.7656 5.84377 21.078 5.96877 21.078C6.01564 21.078 6.32814 21.3749 6.64064 21.7343L7.23439 22.3749L7.81252 22.0781C8.32814 21.8281 8.98439 21.6093 9.73439 21.4374L10 21.3749V20.4374V19.4999H10.5313C10.8281 19.4999 11.125 19.5155 11.2188 19.5468Z"/>
</mask>
<path d="M9.31252 18.1405C8.79689 18.4062 8.56252 18.8124 8.48439 19.6093L8.42189 20.1718L7.98439 20.2968C7.56252 20.4218 7.54689 20.4218 7.25002 20.078C6.68752 19.453 5.93752 19.2499 5.29689 19.5937C5.12502 19.6874 4.67189 20.0624 4.29689 20.4062C3.23439 21.4062 3.12502 22.1093 3.89064 22.9843L4.28127 23.4218L4.09377 23.8593L3.90627 24.2968L3.39064 24.2499C2.96877 24.203 2.76564 24.2499 2.42189 24.4374C1.81252 24.7655 1.67189 25.1093 1.57814 26.328C1.51564 27.2187 1.53127 27.4062 1.70314 27.7812C1.95314 28.3437 2.42189 28.6405 3.06252 28.6405C3.65627 28.6405 3.73439 28.6874 3.89064 29.1562C4.01564 29.5468 4.01564 29.5468 3.60939 29.9374C2.65627 30.9218 2.79689 31.6874 4.20314 33.0312C5.14064 33.9218 5.79689 33.953 6.65627 33.1718L7.04689 32.8281L7.45314 33.0155L7.85939 33.2187L7.87502 33.8749C7.89064 34.5937 8.04689 34.9218 8.60939 35.2968C8.84377 35.4687 9.12502 35.5156 9.96877 35.5624C10.9531 35.6249 11.0625 35.6093 11.4688 35.4218C11.9844 35.1405 12.2656 34.6874 12.2656 34.0624C12.2656 33.4999 12.3281 33.4218 12.8281 33.2812C13.2344 33.1562 13.2344 33.1562 13.5 33.4687C13.8125 33.8437 14.4063 34.1718 14.7813 34.1718C15.25 34.1718 15.8594 33.7968 16.5625 33.0624C17.3281 32.2656 17.4688 31.8906 17.2656 31.2656C17.2031 31.0624 16.9844 30.7343 16.7969 30.5155L16.4531 30.1249L16.6563 29.7187L16.8594 29.3124H17.5156C18.2344 29.3124 18.5469 29.1405 18.9219 28.5937C19.0938 28.3593 19.1406 28.0781 19.1875 27.2343C19.25 26.2499 19.2344 26.1405 19.0469 25.7343C18.7656 25.2187 18.3594 24.9687 17.5781 24.8906L17.0156 24.828L16.8906 24.3906L16.7656 23.9531L17.1563 23.578C17.6719 23.0937 17.8438 22.5312 17.6719 21.9687C17.5 21.4218 16.2031 20.0468 15.7031 19.9062C15.1563 19.7343 14.7031 19.8593 14.2031 20.3124L13.7656 20.703L13.2969 20.4999C12.8438 20.2968 12.8281 20.2968 12.9063 19.9218C13.0313 19.203 12.6719 18.4999 12.0156 18.1562C11.9063 18.1093 11.3594 18.0312 10.7813 17.9843C9.82814 17.9062 9.71877 17.9218 9.31252 18.1405ZM11.2188 19.5468C11.3438 19.5937 11.3594 19.7499 11.3125 20.5156L11.25 21.4218L11.8281 21.5937C12.4063 21.7655 13.0313 22.0624 13.6094 22.4218L13.9219 22.6249L14.5781 22.0155C15.3125 21.328 15.3281 21.3281 15.8594 21.9687L16.1563 22.3437L15.4844 22.9687L14.8125 23.5937L15.1719 24.328C15.375 24.7187 15.5781 25.328 15.6563 25.6874L15.7813 26.328L16.6875 26.3593C17.7344 26.3905 17.7344 26.4062 17.625 27.2187L17.5625 27.7499L16.6563 27.6874L15.75 27.6249L15.5313 28.328C15.4063 28.7187 15.1406 29.2968 14.9219 29.6249C14.4844 30.2968 14.4844 30.3124 15.2344 31.0468C15.5156 31.3124 15.7344 31.5937 15.7344 31.6405C15.7344 31.703 15.5313 31.9218 15.2656 32.1249L14.8125 32.4999L14.1875 31.828L13.5625 31.1718L12.8438 31.5155C12.4531 31.7187 11.8438 31.9218 11.4844 31.9999L10.8438 32.1249L10.8125 33.0312C10.7813 34.078 10.7656 34.0937 9.95314 33.9843L9.40627 33.9218L9.46877 33.0155L9.53127 32.1093L8.85939 31.9062C8.48439 31.7812 7.87502 31.5155 7.51564 31.2968L6.84377 30.8905L6.21877 31.4843C5.87502 31.8124 5.54689 32.078 5.50002 32.078C5.43752 32.078 5.21877 31.8749 5.01564 31.6249L4.65627 31.1718L5.31252 30.5468L5.96877 29.9218L5.68752 29.3593C5.43752 28.8437 5.21877 28.203 5.04689 27.453C4.98439 27.1874 4.98439 27.1874 4.07814 27.1562L3.17189 27.1249L3.14064 26.7968C3.12502 26.6093 3.12502 26.3124 3.17189 26.1249L3.23439 25.7968L4.14064 25.8593L5.04689 25.9218L5.21877 25.3593C5.40627 24.7656 5.70314 24.1249 6.07814 23.578L6.28127 23.2499L5.68752 22.6249C5.35939 22.2812 5.09377 21.9531 5.09377 21.8906C5.09377 21.7656 5.84377 21.078 5.96877 21.078C6.01564 21.078 6.32814 21.3749 6.64064 21.7343L7.23439 22.3749L7.81252 22.0781C8.32814 21.8281 8.98439 21.6093 9.73439 21.4374L10 21.3749V20.4374V19.4999H10.5313C10.8281 19.4999 11.125 19.5155 11.2188 19.5468Z" fill="white"/>
<path d="M9.31252 18.1405C8.79689 18.4062 8.56252 18.8124 8.48439 19.6093L8.42189 20.1718L7.98439 20.2968C7.56252 20.4218 7.54689 20.4218 7.25002 20.078C6.68752 19.453 5.93752 19.2499 5.29689 19.5937C5.12502 19.6874 4.67189 20.0624 4.29689 20.4062C3.23439 21.4062 3.12502 22.1093 3.89064 22.9843L4.28127 23.4218L4.09377 23.8593L3.90627 24.2968L3.39064 24.2499C2.96877 24.203 2.76564 24.2499 2.42189 24.4374C1.81252 24.7655 1.67189 25.1093 1.57814 26.328C1.51564 27.2187 1.53127 27.4062 1.70314 27.7812C1.95314 28.3437 2.42189 28.6405 3.06252 28.6405C3.65627 28.6405 3.73439 28.6874 3.89064 29.1562C4.01564 29.5468 4.01564 29.5468 3.60939 29.9374C2.65627 30.9218 2.79689 31.6874 4.20314 33.0312C5.14064 33.9218 5.79689 33.953 6.65627 33.1718L7.04689 32.8281L7.45314 33.0155L7.85939 33.2187L7.87502 33.8749C7.89064 34.5937 8.04689 34.9218 8.60939 35.2968C8.84377 35.4687 9.12502 35.5156 9.96877 35.5624C10.9531 35.6249 11.0625 35.6093 11.4688 35.4218C11.9844 35.1405 12.2656 34.6874 12.2656 34.0624C12.2656 33.4999 12.3281 33.4218 12.8281 33.2812C13.2344 33.1562 13.2344 33.1562 13.5 33.4687C13.8125 33.8437 14.4063 34.1718 14.7813 34.1718C15.25 34.1718 15.8594 33.7968 16.5625 33.0624C17.3281 32.2656 17.4688 31.8906 17.2656 31.2656C17.2031 31.0624 16.9844 30.7343 16.7969 30.5155L16.4531 30.1249L16.6563 29.7187L16.8594 29.3124H17.5156C18.2344 29.3124 18.5469 29.1405 18.9219 28.5937C19.0938 28.3593 19.1406 28.0781 19.1875 27.2343C19.25 26.2499 19.2344 26.1405 19.0469 25.7343C18.7656 25.2187 18.3594 24.9687 17.5781 24.8906L17.0156 24.828L16.8906 24.3906L16.7656 23.9531L17.1563 23.578C17.6719 23.0937 17.8438 22.5312 17.6719 21.9687C17.5 21.4218 16.2031 20.0468 15.7031 19.9062C15.1563 19.7343 14.7031 19.8593 14.2031 20.3124L13.7656 20.703L13.2969 20.4999C12.8438 20.2968 12.8281 20.2968 12.9063 19.9218C13.0313 19.203 12.6719 18.4999 12.0156 18.1562C11.9063 18.1093 11.3594 18.0312 10.7813 17.9843C9.82814 17.9062 9.71877 17.9218 9.31252 18.1405ZM11.2188 19.5468C11.3438 19.5937 11.3594 19.7499 11.3125 20.5156L11.25 21.4218L11.8281 21.5937C12.4063 21.7655 13.0313 22.0624 13.6094 22.4218L13.9219 22.6249L14.5781 22.0155C15.3125 21.328 15.3281 21.3281 15.8594 21.9687L16.1563 22.3437L15.4844 22.9687L14.8125 23.5937L15.1719 24.328C15.375 24.7187 15.5781 25.328 15.6563 25.6874L15.7813 26.328L16.6875 26.3593C17.7344 26.3905 17.7344 26.4062 17.625 27.2187L17.5625 27.7499L16.6563 27.6874L15.75 27.6249L15.5313 28.328C15.4063 28.7187 15.1406 29.2968 14.9219 29.6249C14.4844 30.2968 14.4844 30.3124 15.2344 31.0468C15.5156 31.3124 15.7344 31.5937 15.7344 31.6405C15.7344 31.703 15.5313 31.9218 15.2656 32.1249L14.8125 32.4999L14.1875 31.828L13.5625 31.1718L12.8438 31.5155C12.4531 31.7187 11.8438 31.9218 11.4844 31.9999L10.8438 32.1249L10.8125 33.0312C10.7813 34.078 10.7656 34.0937 9.95314 33.9843L9.40627 33.9218L9.46877 33.0155L9.53127 32.1093L8.85939 31.9062C8.48439 31.7812 7.87502 31.5155 7.51564 31.2968L6.84377 30.8905L6.21877 31.4843C5.87502 31.8124 5.54689 32.078 5.50002 32.078C5.43752 32.078 5.21877 31.8749 5.01564 31.6249L4.65627 31.1718L5.31252 30.5468L5.96877 29.9218L5.68752 29.3593C5.43752 28.8437 5.21877 28.203 5.04689 27.453C4.98439 27.1874 4.98439 27.1874 4.07814 27.1562L3.17189 27.1249L3.14064 26.7968C3.12502 26.6093 3.12502 26.3124 3.17189 26.1249L3.23439 25.7968L4.14064 25.8593L5.04689 25.9218L5.21877 25.3593C5.40627 24.7656 5.70314 24.1249 6.07814 23.578L6.28127 23.2499L5.68752 22.6249C5.35939 22.2812 5.09377 21.9531 5.09377 21.8906C5.09377 21.7656 5.84377 21.078 5.96877 21.078C6.01564 21.078 6.32814 21.3749 6.64064 21.7343L7.23439 22.3749L7.81252 22.0781C8.32814 21.8281 8.98439 21.6093 9.73439 21.4374L10 21.3749V20.4374V19.4999H10.5313C10.8281 19.4999 11.125 19.5155 11.2188 19.5468Z" stroke="white" stroke-width="0.2" mask="url(#path-2-outside-1_8370_21523)"/>
<path d="M11 22.9376L11.0081 22.8882C10.9789 22.8835 10.9509 22.8789 10.9239 22.8745C10.6001 22.8214 10.433 22.794 10.2742 22.7978C10.118 22.8014 9.9698 22.8353 9.68951 22.8993C9.66064 22.9059 9.63037 22.9128 9.59854 22.92C8.00066 23.2682 6.82955 24.487 6.52901 26.1002C6.21199 27.7804 7.17834 29.5674 8.79096 30.3264C9.03484 30.4444 9.20772 30.5131 9.43711 30.5514C9.66449 30.5893 9.9459 30.597 10.4063 30.597C10.8893 30.597 11.1638 30.5932 11.3938 30.5512C11.6257 30.5089 11.8108 30.4279 12.1157 30.2794L12.1161 30.2792C12.9073 29.8836 13.6028 29.1723 13.9826 28.3812C14.1006 28.1372 14.1693 27.9643 14.2075 27.7349C14.2454 27.5075 14.2531 27.2261 14.2531 26.7657C14.2531 26.3053 14.2454 26.0278 14.2075 25.8023C14.1693 25.5749 14.1006 25.4021 13.9828 25.1508C13.4291 23.9642 12.2903 23.094 11.0079 22.8882L11 22.9376ZM11 22.9376C10.6011 22.8725 10.427 22.8413 10.2545 22.8484C10.0959 22.855 9.93868 22.894 9.6094 22.9688C8.03127 23.3126 6.87502 24.5157 6.57815 26.1095L11 22.9376ZM9.94826 28.9825L9.948 28.9824C9.30579 28.8448 8.73946 28.4318 8.40267 27.85L8.40265 27.85C7.79191 26.7965 8.2047 25.3281 9.27314 24.7476C9.97724 24.3958 10.8494 24.4117 11.5213 24.8087C12.0564 25.1298 12.4698 25.6962 12.6074 26.3233C12.9433 27.8657 11.4752 29.3184 9.94826 28.9825Z" fill="white" stroke="white" stroke-width="0.1"/>
</svg>
