<svg width="80" height="38" viewBox="0 0 80 38" fill="none" xmlns="http://www.w3.org/2000/svg">
<rect x="0.5" width="79" height="38" rx="12" fill="black" fill-opacity="0.25"/>
<path d="M17.5 18.5C16.837 18.5 16.2011 18.2366 15.7322 17.7678C15.2634 17.2989 15 16.663 15 16C15 15.337 15.2634 14.7011 15.7322 14.2322C16.2011 13.7634 16.837 13.5 17.5 13.5C18.163 13.5 18.7989 13.7634 19.2678 14.2322C19.7366 14.7011 20 15.337 20 16C20 16.3283 19.9353 16.6534 19.8097 16.9567C19.6841 17.26 19.4999 17.5356 19.2678 17.7678C19.0356 17.9999 18.76 18.1841 18.4567 18.3097C18.1534 18.4353 17.8283 18.5 17.5 18.5ZM17.5 9C15.6435 9 13.863 9.7375 12.5503 11.0503C11.2375 12.363 10.5 14.1435 10.5 16C10.5 21.25 17.5 29 17.5 29C17.5 29 24.5 21.25 24.5 16C24.5 14.1435 23.7625 12.363 22.4497 11.0503C21.137 9.7375 19.3565 9 17.5 9Z" fill="#023E8A"/>
<path d="M36.004 25V13.8H37.972L42.052 20.44L40.9 20.424L45.028 13.8H46.9V25H44.836V20.792C44.836 19.832 44.8573 18.968 44.9 18.2C44.9533 17.432 45.0387 16.6693 45.156 15.912L45.412 16.6L41.94 21.96H40.884L37.524 16.648L37.748 15.912C37.8653 16.6267 37.9453 17.3627 37.988 18.12C38.0413 18.8667 38.068 19.7573 38.068 20.792V25H36.004ZM52.7423 25.16C52.0489 25.16 51.4196 24.968 50.8543 24.584C50.2889 24.2 49.8356 23.6773 49.4943 23.016C49.1529 22.3547 48.9823 21.6027 48.9823 20.76C48.9823 19.9173 49.1529 19.1653 49.4943 18.504C49.8356 17.8427 50.2996 17.3253 50.8863 16.952C51.4729 16.5787 52.1343 16.392 52.8703 16.392C53.2969 16.392 53.6863 16.456 54.0383 16.584C54.3903 16.7013 54.6996 16.872 54.9663 17.096C55.2329 17.32 55.4516 17.576 55.6223 17.864C55.8036 18.152 55.9263 18.4613 55.9903 18.792L55.5583 18.68V16.568H57.5423V25H55.5423V22.984L56.0063 22.904C55.9316 23.192 55.7929 23.4747 55.5903 23.752C55.3983 24.0187 55.1529 24.2587 54.8543 24.472C54.5663 24.6747 54.2409 24.84 53.8783 24.968C53.5263 25.096 53.1476 25.16 52.7423 25.16ZM53.2863 23.416C53.7449 23.416 54.1503 23.304 54.5023 23.08C54.8543 22.856 55.1263 22.5467 55.3183 22.152C55.5209 21.7467 55.6223 21.2827 55.6223 20.76C55.6223 20.248 55.5209 19.7947 55.3183 19.4C55.1263 19.0053 54.8543 18.696 54.5023 18.472C54.1503 18.248 53.7449 18.136 53.2863 18.136C52.8276 18.136 52.4223 18.248 52.0703 18.472C51.7289 18.696 51.4623 19.0053 51.2703 19.4C51.0783 19.7947 50.9823 20.248 50.9823 20.76C50.9823 21.2827 51.0783 21.7467 51.2703 22.152C51.4623 22.5467 51.7289 22.856 52.0703 23.08C52.4223 23.304 52.8276 23.416 53.2863 23.416ZM59.8239 28.52V16.568H61.7599L61.7919 18.488L61.4559 18.344C61.5199 18.0133 61.7012 17.704 61.9999 17.416C62.2985 17.1173 62.6612 16.8773 63.0879 16.696C63.5252 16.5147 63.9785 16.424 64.4479 16.424C65.1945 16.424 65.8559 16.6107 66.4319 16.984C67.0185 17.3573 67.4772 17.8693 67.8079 18.52C68.1492 19.1707 68.3199 19.9227 68.3199 20.776C68.3199 21.6187 68.1492 22.3707 67.8079 23.032C67.4772 23.6827 67.0185 24.2 66.4319 24.584C65.8559 24.9573 65.2052 25.144 64.4799 25.144C63.9892 25.144 63.5145 25.048 63.0559 24.856C62.6079 24.664 62.2239 24.4133 61.9039 24.104C61.5945 23.7947 61.4025 23.4693 61.3279 23.128L61.8079 22.904V28.52H59.8239ZM64.0799 23.4C64.5279 23.4 64.9279 23.288 65.2799 23.064C65.6319 22.84 65.9039 22.5307 66.0959 22.136C66.2985 21.7413 66.3999 21.288 66.3999 20.776C66.3999 20.264 66.3039 19.816 66.1119 19.432C65.9199 19.0373 65.6479 18.728 65.2959 18.504C64.9439 18.28 64.5385 18.168 64.0799 18.168C63.6105 18.168 63.1999 18.28 62.8479 18.504C62.5065 18.7173 62.2345 19.0213 62.0319 19.416C61.8292 19.8107 61.7279 20.264 61.7279 20.776C61.7279 21.288 61.8292 21.7413 62.0319 22.136C62.2345 22.5307 62.5065 22.84 62.8479 23.064C63.1999 23.288 63.6105 23.4 64.0799 23.4Z" fill="#F5F9FE"/>
</svg>
