<svg width="24" height="24" viewBox="0 0 24 24" fill="none" xmlns="http://www.w3.org/2000/svg">
<g clip-path="url(#clip0_8341_2162)">
<path d="M12 23.25C13.2426 23.25 14.25 22.2426 14.25 21C14.25 19.7574 13.2426 18.75 12 18.75C10.7574 18.75 9.75 19.7574 9.75 21C9.75 22.2426 10.7574 23.25 12 23.25Z" fill="url(#paint0_radial_8341_2162)"/>
<path d="M12 3.75C12.8284 3.75 13.5 3.07843 13.5 2.25C13.5 1.42157 12.8284 0.75 12 0.75C11.1716 0.75 10.5 1.42157 10.5 2.25C10.5 3.07843 11.1716 3.75 12 3.75Z" fill="url(#paint1_radial_8341_2162)"/>
<path opacity="0.2" d="M12 19.3125C12.93 19.3125 13.6875 20.07 13.6875 21C13.6875 21.93 12.93 22.6875 12 22.6875C11.07 22.6875 10.3125 21.93 10.3125 21C10.3125 20.07 11.07 19.3125 12 19.3125ZM12 18.75C10.7569 18.75 9.75 19.7569 9.75 21C9.75 22.2431 10.7569 23.25 12 23.25C13.2431 23.25 14.25 22.2431 14.25 21C14.25 19.7569 13.2431 18.75 12 18.75Z" fill="#424242"/>
<path opacity="0.2" d="M12 1.3125C12.5175 1.3125 12.9375 1.7325 12.9375 2.25C12.9375 2.7675 12.5175 3.1875 12 3.1875C11.4825 3.1875 11.0625 2.7675 11.0625 2.25C11.0625 1.7325 11.4825 1.3125 12 1.3125ZM12 0.75C11.1712 0.75 10.5 1.42125 10.5 2.25C10.5 3.07875 11.1712 3.75 12 3.75C12.8288 3.75 13.5 3.07875 13.5 2.25C13.5 1.42125 12.8288 0.75 12 0.75Z" fill="#424242"/>
<path d="M19.5 8.24984C19.5 1.57109 12 2.24984 12 2.24984C12 2.24984 4.5 1.57109 4.5 8.24984C4.5 14.9286 2.25 17.9998 2.25 17.9998H21.75C21.75 17.9998 19.5 14.9286 19.5 8.24984Z" fill="url(#paint2_radial_8341_2162)"/>
<path d="M22.125 20.25H1.875C1.25625 20.25 0.75 19.7437 0.75 19.125C0.75 18.5063 1.25625 18 1.875 18H22.125C22.7437 18 23.25 18.5063 23.25 19.125C23.25 19.7437 22.7437 20.25 22.125 20.25Z" fill="#FFD740"/>
<path opacity="0.2" d="M12.5681 2.79297C14.4844 2.79297 18.9375 3.32359 18.9375 8.24922C18.9375 15.033 21.2006 18.1998 21.2962 18.3311L21.465 18.5617H22.125C22.4344 18.5617 22.6875 18.8148 22.6875 19.1242C22.6875 19.4336 22.4344 19.6867 22.125 19.6867H1.875C1.56563 19.6867 1.3125 19.4336 1.3125 19.1242C1.3125 18.8148 1.56563 18.5617 1.875 18.5617H2.535L2.70375 18.3311C2.79938 18.1998 5.0625 15.033 5.0625 8.24922C5.0625 6.09297 5.90813 4.54609 7.575 3.65359C8.97375 2.90359 10.5919 2.79297 11.43 2.79297C11.7506 2.79297 11.9475 2.80984 11.9475 2.80984L12 2.81359L12.0506 2.80984C12.0525 2.80984 12.2475 2.79297 12.5681 2.79297ZM12.5681 2.23047C12.2137 2.23047 12 2.24922 12 2.24922C12 2.24922 11.7863 2.23047 11.4319 2.23047C9.6825 2.23047 4.5 2.69734 4.5 8.24922C4.5 14.928 2.25 17.9992 2.25 17.9992H1.875C1.25625 17.9992 0.75 18.5055 0.75 19.1242C0.75 19.743 1.25625 20.2492 1.875 20.2492H22.125C22.7437 20.2492 23.25 19.743 23.25 19.1242C23.25 18.5055 22.7437 17.9992 22.125 17.9992H21.75C21.75 17.9992 19.5 14.928 19.5 8.24922C19.5 2.69922 14.3175 2.23047 12.5681 2.23047Z" fill="#424242"/>
<path d="M22.125 20.25H1.875C1.25625 20.25 0.75 19.7437 0.75 19.125C0.75 18.5063 1.25625 18 1.875 18H22.125C22.7437 18 23.25 18.5063 23.25 19.125C23.25 19.7437 22.7437 20.25 22.125 20.25Z" fill="url(#paint3_radial_8341_2162)"/>
<path opacity="0.2" d="M22.125 18.5625C22.4344 18.5625 22.6875 18.8156 22.6875 19.125C22.6875 19.4344 22.4344 19.6875 22.125 19.6875H1.875C1.56563 19.6875 1.3125 19.4344 1.3125 19.125C1.3125 18.8156 1.56563 18.5625 1.875 18.5625H22.125ZM22.125 18H1.875C1.25625 18 0.75 18.5063 0.75 19.125C0.75 19.7437 1.25625 20.25 1.875 20.25H22.125C22.7437 20.25 23.25 19.7437 23.25 19.125C23.25 18.5063 22.7437 18 22.125 18Z" fill="#424242"/>
</g>
<defs>
<radialGradient id="paint0_radial_8341_2162" cx="0" cy="0" r="1" gradientUnits="userSpaceOnUse" gradientTransform="translate(12.0313 22.9369) scale(3.87506)">
<stop stop-color="#FFA000"/>
<stop offset="0.7434" stop-color="#FF8F00"/>
<stop offset="1" stop-color="#FF8F00"/>
</radialGradient>
<radialGradient id="paint1_radial_8341_2162" cx="0" cy="0" r="1" gradientUnits="userSpaceOnUse" gradientTransform="translate(11.9531 -0.28125) scale(3.30994)">
<stop stop-color="#FFD740"/>
<stop offset="0.203" stop-color="#FFD43C"/>
<stop offset="0.4162" stop-color="#FFCB2F"/>
<stop offset="0.6332" stop-color="#FFBD1A"/>
<stop offset="0.8336" stop-color="#FFAB00"/>
<stop offset="1" stop-color="#FFAB00"/>
</radialGradient>
<radialGradient id="paint2_radial_8341_2162" cx="0" cy="0" r="1" gradientUnits="userSpaceOnUse" gradientTransform="translate(11.9687 2.09365) scale(19.4025)">
<stop stop-color="#FFD740"/>
<stop offset="0.203" stop-color="#FFD43C"/>
<stop offset="0.4162" stop-color="#FFCB2F"/>
<stop offset="0.6332" stop-color="#FFBD1A"/>
<stop offset="0.8336" stop-color="#FFAB00"/>
<stop offset="1" stop-color="#FFAB00"/>
</radialGradient>
<radialGradient id="paint3_radial_8341_2162" cx="0" cy="0" r="1" gradientUnits="userSpaceOnUse" gradientTransform="translate(12.0937 19.0931) scale(14.5627)">
<stop stop-color="#FFD740"/>
<stop offset="0.2435" stop-color="#FFD43C"/>
<stop offset="0.4992" stop-color="#FFCB2F"/>
<stop offset="0.7596" stop-color="#FFBD1A"/>
<stop offset="1" stop-color="#FFAB00"/>
</radialGradient>
<clipPath id="clip0_8341_2162">
<rect width="24" height="24" fill="white"/>
</clipPath>
</defs>
</svg>
