<svg width="40" height="40" viewBox="0 0 40 40" fill="none" xmlns="http://www.w3.org/2000/svg">
<path d="M16.6666 8.33333C16.6666 10.1743 18.159 11.6667 20 11.6667C21.8409 11.6667 23.3333 10.1743 23.3333 8.33333C23.3333 6.49238 21.8409 5 20 5C18.159 5 16.6666 6.49238 16.6666 8.33333Z" stroke="white" stroke-width="1.3"/>
<path d="M16.6666 20.0001C16.6666 21.841 18.159 23.3334 20 23.3334C21.8409 23.3334 23.3333 21.841 23.3333 20.0001C23.3333 18.1591 21.8409 16.6667 20 16.6667C18.159 16.6667 16.6666 18.1591 16.6666 20.0001Z" stroke="white" stroke-width="1.3"/>
<path d="M16.6666 31.6666C16.6666 33.5075 18.159 34.9999 20 34.9999C21.8409 34.9999 23.3333 33.5075 23.3333 31.6666C23.3333 29.8256 21.8409 28.3333 20 28.3333C18.159 28.3333 16.6666 29.8256 16.6666 31.6666Z" stroke="white" stroke-width="1.3"/>
</svg>
