<svg width="38" height="38" viewBox="0 0 38 38" fill="none" xmlns="http://www.w3.org/2000/svg">
<path fill-rule="evenodd" clip-rule="evenodd" d="M20.5235 18.2163V11.4896C20.5235 10.65 19.8421 9.96864 19.0026 9.96864C18.163 9.96864 17.4816 10.65 17.4816 11.4896V19.0774C17.4789 19.3458 17.5474 19.611 17.6793 19.8444C17.8276 20.0963 18.023 20.2882 18.2568 20.4201L24.8281 24.214C25.5551 24.6338 26.4859 24.3844 26.9057 23.6573C27.3255 22.9302 27.0761 21.9994 26.349 21.5796L20.5235 18.2163ZM19.0026 3.8848C27.4028 3.8848 34.2122 10.6942 34.2122 19.0944C34.2122 27.4947 27.4028 34.304 19.0026 34.304C10.6023 34.304 3.79297 27.4947 3.79297 19.0944C3.79297 10.6942 10.6023 3.8848 19.0026 3.8848Z" fill="#F5F9FE"/>
</svg>
