<svg width="40" height="40" viewBox="0 0 40 40" fill="none" xmlns="http://www.w3.org/2000/svg">
<path d="M31.6667 33.3334H8.33337C5.57671 33.3334 3.33337 31.0901 3.33337 28.3334V15.0001C3.33337 12.2434 5.57671 10.0001 8.33337 10.0001H10.9767L12.6434 8.33341C13.6084 7.36841 15.3034 6.66675 16.6667 6.66675H23.3334C24.6967 6.66675 26.3917 7.36841 27.3567 8.33341L29.0234 10.0001H31.6667C34.4234 10.0001 36.6667 12.2434 36.6667 15.0001V28.3334C36.6667 31.0901 34.4234 33.3334 31.6667 33.3334ZM8.33337 13.3334C7.89135 13.3334 7.46742 13.509 7.15486 13.8216C6.8423 14.1341 6.66671 14.5581 6.66671 15.0001V28.3334C6.66671 28.7754 6.8423 29.1994 7.15486 29.5119C7.46742 29.8245 7.89135 30.0001 8.33337 30.0001H31.6667C32.1087 30.0001 32.5327 29.8245 32.8452 29.5119C33.1578 29.1994 33.3334 28.7754 33.3334 28.3334V15.0001C33.3334 14.5581 33.1578 14.1341 32.8452 13.8216C32.5327 13.509 32.1087 13.3334 31.6667 13.3334H28.3334C27.8914 13.3333 27.4675 13.1577 27.155 12.8451L25 10.6901C24.665 10.3551 23.8084 10.0001 23.3334 10.0001H16.6667C16.1917 10.0001 15.335 10.3551 15 10.6901L12.845 12.8451C12.5326 13.1577 12.1087 13.3333 11.6667 13.3334H8.33337ZM20 16.6667C22.2984 16.6667 24.1667 18.5351 24.1667 20.8334C24.1667 23.1317 22.2984 25.0001 20 25.0001C17.7017 25.0001 15.8334 23.1317 15.8334 20.8334C15.8334 18.5351 17.7017 16.6667 20 16.6667ZM20 15.0001C18.4529 15.0001 16.9692 15.6147 15.8753 16.7086C14.7813 17.8026 14.1667 19.2863 14.1667 20.8334C14.1667 22.3805 14.7813 23.8642 15.8753 24.9582C16.9692 26.0522 18.4529 26.6667 20 26.6667C21.5471 26.6667 23.0309 26.0522 24.1248 24.9582C25.2188 23.8642 25.8334 22.3805 25.8334 20.8334C25.8334 19.2863 25.2188 17.8026 24.1248 16.7086C23.0309 15.6147 21.5471 15.0001 20 15.0001ZM30 14.4984C29.7155 14.4984 29.4338 14.5545 29.1709 14.6633C28.908 14.7722 28.6692 14.9318 28.468 15.133C28.2668 15.3342 28.1072 15.5731 27.9983 15.8359C27.8894 16.0988 27.8334 16.3805 27.8334 16.6651C27.8334 16.9496 27.8894 17.2314 27.9983 17.4942C28.1072 17.7571 28.2668 17.996 28.468 18.1971C28.6692 18.3983 28.908 18.5579 29.1709 18.6668C29.4338 18.7757 29.7155 18.8317 30 18.8317C30.5747 18.8317 31.1258 18.6035 31.5321 18.1971C31.9384 17.7908 32.1667 17.2397 32.1667 16.6651C32.1667 16.0904 31.9384 15.5393 31.5321 15.133C31.1258 14.7267 30.5747 14.4984 30 14.4984Z" fill="white"/>
</svg>
