<svg width="40" height="26" viewBox="0 0 40 26" fill="none" xmlns="http://www.w3.org/2000/svg">
<g clip-path="url(#clip0_8370_21554)">
<path fill-rule="evenodd" clip-rule="evenodd" d="M30.7357 6.9974L24.8828 6.96484V3.02604C24.8828 2.4401 24.6452 1.90951 24.2578 1.52539C23.8737 1.13802 23.3431 0.900391 22.7572 0.900391H6.5332C5.94727 0.900391 5.41667 1.13802 5.03255 1.52539C4.64844 1.90951 4.40755 2.4401 4.40755 3.02604C4.40755 3.34505 4.66471 3.60221 4.98372 3.60221C5.30273 3.60221 5.5599 3.34505 5.5599 3.02604C5.5599 2.75911 5.67057 2.51497 5.84635 2.33919C6.02214 2.16341 6.26628 2.05273 6.5332 2.05273H22.7572C23.0241 2.05273 23.2682 2.16341 23.444 2.33919C23.6198 2.51497 23.7305 2.75911 23.7305 3.02604V21.0632H20.4818C20.1628 21.0632 19.9056 21.3203 19.9056 21.6393C19.9056 21.9583 20.1628 22.2155 20.4818 22.2155H24.3066C24.6257 22.2155 24.8828 21.9583 24.8828 21.6393V20.985H28.3594C28.623 14.9889 37.2331 14.1621 38.1087 20.985H40L39.4173 14.7285L33.2096 12.3522L30.7357 6.9974ZM0.86263 13.1204C0.384115 13.1204 0 12.86 0 12.541C0 12.222 0.38737 11.9616 0.86263 11.9616H8.63932C9.11784 11.9616 9.50195 12.222 9.50195 12.541C9.50195 12.86 9.11458 13.1204 8.63932 13.1204H0.86263ZM2.64323 10.002C2.28516 10.002 1.99544 9.74479 1.99544 9.42578C1.99544 9.10677 2.28516 8.84961 2.64323 8.84961H8.64258C9.00065 8.84961 9.29037 9.10677 9.29037 9.42578C9.29037 9.74479 9.00065 10.002 8.64258 10.002H2.64323ZM3.4668 6.88346C3.10872 6.88346 2.81901 6.6263 2.81901 6.30729C2.81901 5.98828 3.10872 5.73112 3.4668 5.73112H8.63932C8.9974 5.73112 9.28711 5.98828 9.28711 6.30729C9.28711 6.6263 8.9974 6.88346 8.63932 6.88346H3.4668ZM8.61328 21.0599C8.93229 21.0599 9.18945 21.3171 9.18945 21.6361C9.18945 21.9551 8.93229 22.2122 8.61328 22.2122H6.5332C5.95052 22.2122 5.41992 21.9583 5.03255 21.5579C4.64844 21.1576 4.40755 20.6107 4.40755 20.0312V15.7995C4.40755 15.4805 4.66471 15.2233 4.98372 15.2233C5.30273 15.2233 5.5599 15.4805 5.5599 15.7995V20.0312C5.5599 20.3079 5.67383 20.5716 5.85938 20.7637C6.03516 20.946 6.27279 21.0632 6.52995 21.0632H8.61328V21.0599ZM14.4727 17.2969C12.3177 17.2969 10.5697 19.0449 10.5697 21.1999C10.5697 23.3548 12.3177 25.1029 14.4727 25.1029C16.6276 25.1029 18.3757 23.3548 18.3757 21.1999C18.3724 19.0449 16.6276 17.2969 14.4727 17.2969ZM14.4727 19.6992C13.6458 19.6992 12.972 20.3698 12.972 21.1999C12.972 22.0267 13.6426 22.7005 14.4727 22.7005C15.2995 22.7005 15.9733 22.0299 15.9733 21.1999C15.9701 20.3698 15.2995 19.6992 14.4727 19.6992ZM33.2227 17.2969C31.0677 17.2969 29.3197 19.0449 29.3197 21.1999C29.3197 23.3548 31.0677 25.1029 33.2227 25.1029C35.3776 25.1029 37.1257 23.3548 37.1257 21.1999C37.1257 19.0449 35.3776 17.2969 33.2227 17.2969ZM33.2227 19.6992C32.3958 19.6992 31.722 20.3698 31.722 21.1999C31.722 22.0267 32.3926 22.7005 33.2227 22.7005C34.0527 22.7005 34.7233 22.0299 34.7233 21.1999C34.7233 20.3698 34.0527 19.6992 33.2227 19.6992ZM29.2285 8.65104L26.3216 8.61849V12.3587H31.1947L29.2285 8.65104Z" fill="white"/>
</g>
<defs>
<clipPath id="clip0_8370_21554">
<rect width="40" height="24.1992" fill="white" transform="translate(0 0.900391)"/>
</clipPath>
</defs>
</svg>
