<svg width="23" height="22" viewBox="0 0 23 22" fill="none" xmlns="http://www.w3.org/2000/svg">
<path d="M4.65878 4.80773C4.65878 4.59351 4.74182 4.38806 4.88965 4.23658C5.03747 4.0851 5.23796 4 5.44701 4C5.65607 4 5.85656 4.0851 6.00438 4.23658C6.15221 4.38806 6.23525 4.59351 6.23525 4.80773L6.23525 15.2436L8.56843 12.8528C8.6406 12.7734 8.72762 12.7097 8.82431 12.6656C8.921 12.6215 9.02538 12.5977 9.13121 12.5958C9.23705 12.5939 9.34218 12.6138 9.44033 12.6545C9.53848 12.6951 9.62764 12.7556 9.70249 12.8323C9.77734 12.909 9.83634 13.0003 9.87599 13.1009C9.91563 13.2015 9.9351 13.3092 9.93323 13.4177C9.93137 13.5261 9.9082 13.6331 9.86512 13.7322C9.82204 13.8312 9.75992 13.9204 9.68248 13.9944L6.00404 17.7638C5.85624 17.915 5.6559 18 5.44701 18C5.23813 18 5.03779 17.915 4.88999 17.7638L1.21155 13.9944C1.07232 13.8412 0.996519 13.6387 1.00012 13.4295C1.00373 13.2202 1.08645 13.0205 1.23087 12.8726C1.37529 12.7246 1.57012 12.6398 1.77433 12.6361C1.97854 12.6324 2.17617 12.7101 2.3256 12.8528L4.65878 15.2436V4.80773ZM21.2118 4.53849C21.4208 4.53849 21.6213 4.62359 21.7691 4.77507C21.917 4.92655 22 5.132 22 5.34622C22 5.56045 21.917 5.7659 21.7691 5.91738C21.6213 6.06886 21.4208 6.15396 21.2118 6.15396L11.2274 6.15396C11.0184 6.15396 10.8179 6.06886 10.6701 5.91738C10.5222 5.7659 10.4392 5.56045 10.4392 5.34622C10.4392 5.132 10.5222 4.92655 10.6701 4.77507C10.8179 4.62359 11.0184 4.53849 11.2274 4.53849L21.2118 4.53849ZM21.2118 9.92338C21.4208 9.92338 21.6213 10.0085 21.7691 10.16C21.917 10.3114 22 10.5169 22 10.7311C22 10.9453 21.917 11.1508 21.7691 11.3023C21.6213 11.4537 21.4208 11.5388 21.2118 11.5388H15.4314C15.2223 11.5388 15.0218 11.4537 14.874 11.3023C14.7262 11.1508 14.6431 10.9453 14.6431 10.7311C14.6431 10.5169 14.7262 10.3114 14.874 10.16C15.0218 10.0085 15.2223 9.92338 15.4314 9.92338H21.2118ZM21.2118 15.3083C21.4208 15.3083 21.6213 15.3934 21.7691 15.5448C21.917 15.6963 22 15.9018 22 16.116C22 16.3302 21.917 16.5357 21.7691 16.6872C21.6213 16.8386 21.4208 16.9237 21.2118 16.9237H17.5333C17.3243 16.9237 17.1238 16.8386 16.976 16.6872C16.8281 16.5357 16.7451 16.3302 16.7451 16.116C16.7451 15.9018 16.8281 15.6963 16.976 15.5448C17.1238 15.3934 17.3243 15.3083 17.5333 15.3083H21.2118Z" fill="#023E8A"/>
</svg>
